<?xml version="1.0" encoding="utf-8"?>
<!-- Generator: Adobe Illustrator 26.5.0, SVG Export Plug-In . SVG Version: 6.00 Build 0)  -->
<svg version="1.1" id="fillerSVG" xmlns="http://www.w3.org/2000/svg" xmlns:xlink="http://www.w3.org/1999/xlink" x="0px" y="0px"
	 viewBox="0 0 600 400" style="enable-background:new 0 0 600 400;" xml:space="preserve">
<style type="text/css">
	.st0{stroke:#000000;stroke-miterlimit:10;}
</style>
<path class="st0" d="M203.2,277.4"/>
<path class="st0" d="M380.4,256.1c0,0,0.2,7.8,0.2,7.8c0,0,0.2,5.8,0.2,5.9c0,1.4,0.1,2.8,0.1,4.2c0,0,0.2,5.8,0.2,5.9
	c0,0,0.1,5.3,0.1,5.3c0,0,0.1,5.6,0.1,5.6c0,0,0.2,6.7,0.2,6.7c0,0,0.2,6.1,0.2,6.1c0,0.1,0.2,7.2,0.2,7.2
	c18.2-10,36.5-20.1,54.7-30.1L380.4,256.1z"/>
</svg>
