<?xml version="1.0" encoding="utf-8"?>
<!-- Generator: Adobe Illustrator 26.5.0, SVG Export Plug-In . SVG Version: 6.00 Build 0)  -->
<svg version="1.1" id="fillerSVG" xmlns="http://www.w3.org/2000/svg" xmlns:xlink="http://www.w3.org/1999/xlink" x="0px" y="0px"
	 viewBox="0 0 600 400" style="enable-background:new 0 0 600 400;" xml:space="preserve">
<style type="text/css">
	.st0{stroke:#000000;stroke-miterlimit:10;}
	.st1{stroke:#D05900;stroke-miterlimit:10;}
</style>
<path class="st0" d="M203.2,277.4"/>
<path class="st1" d="M538.1,336.5c-1.6,10.6-3.1,21.1-4.7,31.7c0.3-0.8,2.4-5.3,7.2-6.6c0.5-0.1,3-0.8,5.4,0
	c6,2.1,4.5,11.3,9.6,17.4c7.9,9.6,26.8,6,26.8,5.1c0.1-0.7-15.1,1.2-23.7-8.5c-4.9-5.5-7.8-15-4.2-19.9c1.2-1.7,3.2-2.8,3.8-3.1
	c4-2.1,8.1-1.2,9.2-0.8C557.7,346.7,547.9,341.6,538.1,336.5z"/>
</svg>
