<?xml version="1.0" encoding="utf-8"?>
<!-- Generator: Adobe Illustrator 26.5.0, SVG Export Plug-In . SVG Version: 6.00 Build 0)  -->
<svg version="1.1" id="fillerSVG" xmlns="http://www.w3.org/2000/svg" xmlns:xlink="http://www.w3.org/1999/xlink" x="0px" y="0px"
	 viewBox="0 0 600 400" style="enable-background:new 0 0 600 400;" xml:space="preserve">
<path d="M563.6,393.9c0.3-0.2,6.2-4.5,6.4-4.6c0.1-0.1,3-2.1,3-2.2c0.1,0,2.5-1.8,2.5-1.8c0,0,1.4-1,1.5-1c0,0,1.4-1,1.4-1
	c0,0,1.3-0.9,1.3-0.9c0.7-0.5,1.4-1,2.1-1.5c0.5-0.4,1-0.7,1.5-1.1c0.6-0.5,1.3-0.9,1.9-1.4c0,0,2.7-2,2.8-2c0,0,7.6-5.4,7.6-5.4
	c0.1-0.1,0.2-0.3,0.2-0.4c0-0.2-0.1-0.3-0.3-0.4l-36.5-15.2c-0.3-0.1-0.7,0.1-0.6,0.5l4.4,38.2C562.9,394,563.3,394.1,563.6,393.9z"
	/>
</svg>
