<?xml version="1.0" encoding="utf-8"?>
<!-- Generator: Adobe Illustrator 26.5.0, SVG Export Plug-In . SVG Version: 6.00 Build 0)  -->
<svg version="1.1" id="fillerSVG" xmlns="http://www.w3.org/2000/svg" xmlns:xlink="http://www.w3.org/1999/xlink" x="0px" y="0px"
	 viewBox="0 0 600 400" style="enable-background:new 0 0 600 400;" xml:space="preserve">
<path d="M554.1,386.5c0.3-0.2,6.2-4.5,6.4-4.6c1.6-1.1,2.6-1.9,3-2.2c2.3-1.4,3.4-2.1,4.6-2c2.8,0.2,4.7,4.5,5.5,6.4
	c1.7,4,1,5.7,2.3,6.4c2.9,1.5,10.5-5.7,9.4-8.1c-0.4-0.9-1.8-0.4-4.6-1.5c-3.6-1.4-7.4-4.5-7-7c0.2-1,1-1.9,2.2-3
	c0.6-0.6,1.3-0.9,2.8-2c0,0,7.6-5.4,7.6-5.4c0.1-0.1,0.2-0.3,0.2-0.4c0-0.2-0.1-0.3-0.3-0.4l-36.5-15.2c-0.3-0.1-0.7,0.1-0.6,0.5
	l4.4,38.2C553.4,386.6,553.8,386.7,554.1,386.5z"/>
</svg>
