<?xml version="1.0" encoding="utf-8"?>
<!-- Generator: Adobe Illustrator 26.5.0, SVG Export Plug-In . SVG Version: 6.00 Build 0)  -->
<svg version="1.1" id="fillerSVG" xmlns="http://www.w3.org/2000/svg" xmlns:xlink="http://www.w3.org/1999/xlink" x="0px" y="0px"
	 viewBox="0 0 600 400" style="enable-background:new 0 0 600 400;" xml:space="preserve">
<style type="text/css">
	.st0{stroke:#000000;stroke-miterlimit:10;}
</style>
<path class="st0" d="M-48,210c32.7-15.3,44.4-32.6,48.7-46.4c5-15.9,1.6-31.8,11.9-38.2c10.8-6.7,24.7,4.4,29.7-1.1
	c7.8-8.6-21.9-39.8-14.9-49.5c9.6-13.1,75.3,27.8,87.5,13.2c9.8-11.8-27.2-45.3-16-67.7c9-17.9,40.6-10.8,74.2-21
	c28.3-8.6,63-31.1,94.8-90.3c-66.7-43-133.3-86-200-129c-87.6,50.1-106.5,87.3-104.4,113.6c1.6,20.2,16.4,43.1,8.4,49.7
	c-9.4,7.8-39-16.6-44.5-10.4c-5.7,6.4,22.2,35.9,15.4,44.5c-5.9,7.3-31.4-7.7-37.4,0.1c-5.3,6.9,11.1,23.4,6.1,30.1
	c-5.3,7.2-27.2-7.3-47.1-6.1C-153.2,2.5-178,16.3-206,78C-153.3,122-100.7,166-48,210z"/>
</svg>
