<?xml version="1.0" encoding="utf-8"?>
<!-- Generator: Adobe Illustrator 26.5.0, SVG Export Plug-In . SVG Version: 6.00 Build 0)  -->
<svg version="1.1" id="fillerSVG" xmlns="http://www.w3.org/2000/svg" xmlns:xlink="http://www.w3.org/1999/xlink" x="0px" y="0px"
	 viewBox="0 0 600 400" style="enable-background:new 0 0 600 400;" xml:space="preserve">
<style type="text/css">
	.st0{stroke:#000000;stroke-miterlimit:10;}
</style>
<path class="st0" d="M-6.3,397c497.2,293.8,666.9,337.6,703.1,292.6c40.3-50.2-96.5-196.3-38.3-285.7c66-101.5,309-16.4,333.9-74.2
	c16.3-37.8-64.2-128.6-394.9-336.7c0.8,90.4,1.7,180.9,2.5,271.3c-25.5-10.5-60.8-21.9-73.5-7.8c-20.4,22.5,34.1,91.1,15.6,109.5
	c-21.2,21.1-110.9-51-133-29.7c-10.9,10.5-0.6,39.3,11,63.7C278,399,135.8,398-6.3,397z"/>
</svg>
