<?xml version="1.0" encoding="utf-8"?>
<!-- Generator: Adobe Illustrator 26.5.0, SVG Export Plug-In . SVG Version: 6.00 Build 0)  -->
<svg version="1.1" id="fillerSVG" xmlns="http://www.w3.org/2000/svg" xmlns:xlink="http://www.w3.org/1999/xlink" x="0px" y="0px"
	 viewBox="0 0 600 400" style="enable-background:new 0 0 600 400;" xml:space="preserve">
<style type="text/css">
	.st0{stroke:#000000;stroke-miterlimit:10;}
</style>
<path class="st0" d="M13.1,479.7c33.7-22.9,89-52.9,155.7-49.9c172.9,7.7,295.7,230.9,339.5,204.1c24.6-15.1-12-87,22.3-115
	c43.5-35.6,144.6,45.8,170.7,18.6c30.9-32.3-85.8-173.1-55.7-204.1c23.1-23.7,108.9,40.2,126.1,20.4c21.4-24.7-107-129-148.4-298.7
	c-16.5-67.5-14.7-126.7-10.4-167C486.3-196.5,359.8-281,233.2-365.5C67-267.1,31.1-193.9,35-142.3c3,39.7,31.1,84.7,15.9,97.7
	C33-29.3-23.1-77.1-33.6-65C-44.5-52.4,8.6,5.7-4.5,22.5c-11.1,14.4-59.6-15.2-71,0.1c-10.1,13.5,21,46,11.6,59.2
	c-10.1,14.1-51.6-14.4-89.3-12c-33.3,2.1-80.4,29.1-133.6,150.5C-186.9,306.7-86.9,393.2,13.1,479.7z"/>
</svg>
