<?xml version="1.0" encoding="utf-8"?>
<!-- Generator: Adobe Illustrator 26.5.0, SVG Export Plug-In . SVG Version: 6.00 Build 0)  -->
<svg version="1.1" id="fillerSVG" xmlns="http://www.w3.org/2000/svg" xmlns:xlink="http://www.w3.org/1999/xlink" x="0px" y="0px"
	 viewBox="0 0 600 400" style="enable-background:new 0 0 600 400;" xml:space="preserve">
<style type="text/css">
	.st0{stroke:#000000;stroke-miterlimit:10;}
</style>
<path class="st0" d="M-101.6,341.6C474.4,730.3,646,794.8,675.5,759.6c36.7-43.8-140.8-247.3-94.7-294
	c42.6-43.1,231.5,92.4,260,56.8c27.8-34.6-135.7-181.7-102.5-232.5c34.2-52.4,242.6,50.8,264.1,12.8
	c18.8-33.2-114.7-156.2-264.1-249C566.8-52.9,404.4-100.9,294.7-124.7c-66-38.9-132.1-77.7-198.1-116.6C14.8-180-3.9-135.1-1.4-103
	C1-71.5,24.3-46.4,17.1-33.5c-9.7,17.4-58-17.7-66.9-1.2c-9,16.7,34,65.3,24.9,84.3c-7.9,16.6-45.2-11.9-82-3.6
	c-28.4,6.4-65,36.5-100.4,141.7C-172.1,238.9-136.8,290.3-101.6,341.6z"/>
</svg>
