<?xml version="1.0" encoding="utf-8"?>
<!-- Generator: Adobe Illustrator 26.5.0, SVG Export Plug-In . SVG Version: 6.00 Build 0)  -->
<svg version="1.1" id="fillerSVG" xmlns="http://www.w3.org/2000/svg" xmlns:xlink="http://www.w3.org/1999/xlink" x="0px" y="0px"
	 viewBox="0 0 600 400" style="enable-background:new 0 0 600 400;" xml:space="preserve">
<style type="text/css">
	.st0{stroke:#000000;stroke-miterlimit:10;}
</style>
<path class="st0" d="M0,95.5c-1.1-12.3-0.3-24,6.1-27.4C17.5,62,38.4,86.7,45.7,81.5c8.4-6-15-42.4-4.9-52.2
	c11.4-11,57.7,20.3,61.6,14.4c2.9-4.4-22.7-21.8-18.5-33.7c2.2-6.4,12.3-9,23.1-10C84-15.1,61-30.1,38.1-45.2
	c-10.1-1.8-21-2.3-25,3.4c-4.7,6.9,4.2,17.6-0.1,22.3c-6.5,7.1-32.8-12.1-39.6-5.2c-6.3,6.3,10.7,27.9,4.2,34.8
	c-6.5,6.9-28.5-9.4-35.9-2.6c-3.8,3.5-3.8,13.2,8.3,37.8C-33.3,62-16.7,78.7,0,95.5z"/>
</svg>
