<?xml version="1.0" encoding="utf-8"?>
<!-- Generator: Adobe Illustrator 26.5.0, SVG Export Plug-In . SVG Version: 6.00 Build 0)  -->
<svg version="1.1" id="fillerSVG" xmlns="http://www.w3.org/2000/svg" xmlns:xlink="http://www.w3.org/1999/xlink" x="0px" y="0px"
	 viewBox="0 0 600 400" style="enable-background:new 0 0 600 400;" xml:space="preserve">
<style type="text/css">
	.st0{stroke:#000000;stroke-miterlimit:10;}
</style>
<path class="st0" d="M203.2,277.4"/>
<path class="st0" d="M-27.1,0v-76.9L9.7-49.9l36.2-26.9l24.1,22l39-22l24.8,20.6l32.6-20.6L186.3-57l26.9-19.8l15.6,17l28.4-17
	l12.8,16.3L300-76.9l14.6,14.2l21.3-14.2l9.9,12.8l40.4-12.8l17,12.1l17.7-12.1l10.6,10.6l17.7-10.6l30.5,11.3l13.5-11.3l13.5,9.2
	l24.8-9.2l17.7,9.9l18.4-9.9l17,11.3L600-76.9v73c-7.2-14.2-14.5-28.4-21.7-42.5c-6.1,13.2-12.3,26.5-18.4,39.7l-40.4-18.4L506-14.5
	l-19.8-11.3L472.7-18c-1.2-9.9-2.4-19.8-3.5-29.8c-6.1,10.9-12.3,21.7-18.4,32.6l-16.3-23.2l-14.2,19l-9.9-27.6
	c-9.9,11.1-19.8,22.2-29.8,33.3c-8-10.9-16.1-21.7-24.1-32.6l-12.1,22.7l-22-14.7c-7.8,6.3-15.6,12.7-23.4,19
	c-8.5-6.3-17-12.7-25.5-19c-5.7,3.3-11.3,6.5-17,9.8c-5.2-3.3-10.4-6.5-15.6-9.8c-6.6,9.2-13.2,18.3-19.8,27.5
	c-5.9-11.1-11.9-22.2-17.8-33.3L180.6-18l-9.9-20.4l-7.8,23.2l-21.3-23.2l-22,25.4l-17-25.4L79.9-8.8C75-19.9,70-31,65-42.1
	c-5.2,9.7-10.4,19.4-15.6,29.1c-5.7-3.3-11.3-6.6-17-9.9c-6.4,3.3-12.8,6.6-19.1,9.9L-7.3-38.4L-27.1,0z"/>
</svg>
